<svg xmlns="http://www.w3.org/2000/svg"
  width="520" height="220" viewBox="0 0 520 220">
<style>
.label, .value {
  font-family: "Noto Sans", "Noto Sans JP",
               -apple-system, BlinkMacSystemFont,
               "Segoe UI", Helvetica, Arial, sans-serif;
  fill: #374151;
}

.label {
  font-size: 14px;
}

.value {
  font-size: 13px;
}

/* Dark mode */
@media (prefers-color-scheme: dark) {
  .label, .value {
    fill: #E5E7EB;
  }
}

</style>
<path d="M 110,110 L 110.00,30.00 A 80,80 0 0,1 186.52,86.66 Z" fill="#E34F26"/><path d="M 110,110 L 186.52,86.66 A 80,80 0 0,1 162.80,170.10 Z" fill="#FF914D"/><path d="M 110,110 L 162.80,170.10 A 80,80 0 0,1 93.78,188.34 Z" fill="#3776AB"/><path d="M 110,110 L 93.78,188.34 A 80,80 0 0,1 41.62,151.52 Z" fill="#777BB4"/><path d="M 110,110 L 41.62,151.52 A 80,80 0 0,1 32.35,90.73 Z" fill="#53ae53"/><path d="M 110,110 L 32.35,90.73 A 80,80 0 0,1 110.00,30.00 Z" fill="#9CA3AF"/><rect x="230" y="35" width="12" height="12" fill="#E34F26"/><text x="250" y="45" class="label">HTML</text><text x="460" y="45" class="value">20.3%</text><rect x="230" y="61" width="12" height="12" fill="#FF914D"/><text x="250" y="71" class="label">Jupyter Notebook</text><text x="460" y="71" class="value">18.2%</text><rect x="230" y="87" width="12" height="12" fill="#3776AB"/><text x="250" y="97" class="label">Python</text><text x="460" y="97" class="value">14.7%</text><rect x="230" y="113" width="12" height="12" fill="#777BB4"/><text x="250" y="123" class="label">PHP</text><text x="460" y="123" class="value">13.1%</text><rect x="230" y="139" width="12" height="12" fill="#53ae53"/><text x="250" y="149" class="label">TeX</text><text x="460" y="149" class="value">12.6%</text><rect x="230" y="165" width="12" height="12" fill="#9CA3AF"/><text x="250" y="175" class="label">Other</text><text x="460" y="175" class="value">21.1%</text></svg>