<svg xmlns="http://www.w3.org/2000/svg"
  width="520" height="220" viewBox="0 0 520 220">
<style>
.label, .value, .title {
  font-family: -apple-system, BlinkMacSystemFont,
               "Segoe UI", Helvetica, Arial, sans-serif;
  fill: #374151;
}
.title { font-size: 16px; font-weight: 600; }
.label { font-size: 14px; }
.value { font-size: 13px; }

@media (prefers-color-scheme: dark) {
  .label, .value, .title { fill: #E5E7EB; }
}
</style>

<text x="20" y="24" class="title">Programming Languages</text>
<path d="M 110,110 L 110.00,30.00 A 80,80 0 1,1 46.22,158.29 Z" fill="#F37626"/><path d="M 110,110 L 46.22,158.29 A 80,80 0 0,1 46.56,61.26 Z" fill="#00599C"/><path d="M 110,110 L 46.56,61.26 A 80,80 0 0,1 86.38,33.57 Z" fill="#3776AB"/><path d="M 110,110 L 86.38,33.57 A 80,80 0 0,1 98.95,30.77 Z" fill="#555555"/><path d="M 110,110 L 98.95,30.77 A 80,80 0 0,1 108.97,30.01 Z" fill="#e16737"/><path d="M 110,110 L 108.97,30.01 A 80,80 0 0,1 110.00,30.00 Z" fill="#9CA3AF"/><rect x="230" y="40" width="12" height="12" fill="#F37626"/><text x="250" y="50" class="label">Jupyter Notebook</text><text x="460" y="50" class="value">64.7%</text><rect x="230" y="66" width="12" height="12" fill="#00599C"/><text x="250" y="76" class="label">C++</text><text x="460" y="76" class="value">20.7%</text><rect x="230" y="92" width="12" height="12" fill="#3776AB"/><text x="250" y="102" class="label">Python</text><text x="460" y="102" class="value">9.8%</text><rect x="230" y="118" width="12" height="12" fill="#555555"/><text x="250" y="128" class="label">C</text><text x="460" y="128" class="value">2.6%</text><rect x="230" y="144" width="12" height="12" fill="#e16737"/><text x="250" y="154" class="label">MATLAB</text><text x="460" y="154" class="value">2.0%</text><rect x="230" y="170" width="12" height="12" fill="#9CA3AF"/><text x="250" y="180" class="label">Other</text><text x="460" y="180" class="value">0.2%</text></svg>